<?xml version="1.0" encoding="UTF-8" standalone="no"?>
<!DOCTYPE svg PUBLIC "-//W3C//DTD SVG 1.1//EN"
 "http://www.w3.org/Graphics/SVG/1.1/DTD/svg11.dtd">
<!-- Generated by graphviz version 2.40.1 (20161225.0304)
 -->
<!-- Title: Workflows Pages: 1 -->
<svg width="266pt" height="577pt"
 viewBox="0.00 0.00 265.75 577.34" xmlns="http://www.w3.org/2000/svg" xmlns:xlink="http://www.w3.org/1999/xlink">
<g id="graph0" class="graph" transform="scale(1 1) rotate(0) translate(18 559.336)">
<title>Workflows</title>
<polygon fill="#ffffff" stroke="transparent" points="-18,18 -18,-559.336 247.7515,-559.336 247.7515,18 -18,18"/>
<!-- Users -->
<g id="node1" class="node">
<title>Users</title>
<ellipse fill="none" stroke="#000000" cx="128.6701" cy="-476.9459" rx="64.2805" ry="64.2805"/>
<text text-anchor="middle" x="128.6701" y="-472.7459" font-family="Times,serif" font-size="14.00" fill="#000000">Users Service</text>
</g>
<!-- Broker -->
<g id="node2" class="node">
<title>Broker</title>
<path fill="none" stroke="#000000" d="M174.7399,-289.683C174.7399,-291.4888 154.0907,-292.9557 128.6701,-292.9557 103.2495,-292.9557 82.6003,-291.4888 82.6003,-289.683 82.6003,-289.683 82.6003,-260.2284 82.6003,-260.2284 82.6003,-258.4226 103.2495,-256.9557 128.6701,-256.9557 154.0907,-256.9557 174.7399,-258.4226 174.7399,-260.2284 174.7399,-260.2284 174.7399,-289.683 174.7399,-289.683"/>
<path fill="none" stroke="#000000" d="M174.7399,-289.683C174.7399,-287.8771 154.0907,-286.4102 128.6701,-286.4102 103.2495,-286.4102 82.6003,-287.8771 82.6003,-289.683"/>
<text text-anchor="middle" x="128.6701" y="-270.7557" font-family="Times,serif" font-size="14.00" fill="#000000">Kafka Broker</text>
</g>
<!-- Users&#45;&gt;Broker -->
<g id="edge1" class="edge">
<title>Users&#45;&gt;Broker</title>
<path fill="none" stroke="#000000" d="M71.775,-446.4546C29.0221,-419.3173 -18.111,-377.5814 7.5333,-335.9557 21.9257,-312.594 48.3157,-297.8612 72.7984,-288.7422"/>
<polygon fill="#000000" stroke="#000000" points="74.1178,-291.9891 82.4148,-285.4004 71.82,-285.3769 74.1178,-291.9891"/>
<text text-anchor="middle" x="50.2385" y="-356.9557" font-family="Times,serif" font-size="14.00" fill="#000000">(1) publish to</text>
<text text-anchor="middle" x="50.2385" y="-340.1557" font-family="Times,serif" font-size="14.00" fill="#000000">topic get_order</text>
</g>
<!-- Broker&#45;&gt;Users -->
<g id="edge2" class="edge">
<title>Broker&#45;&gt;Users</title>
<path fill="none" stroke="#000000" d="M128.6701,-293.1312C128.6701,-317.6745 128.6701,-362.8871 128.6701,-402.3283"/>
<polygon fill="#000000" stroke="#000000" points="125.1702,-402.4795 128.6701,-412.4795 132.1702,-402.4796 125.1702,-402.4795"/>
<text text-anchor="middle" x="179.2108" y="-356.9557" font-family="Times,serif" font-size="14.00" fill="#000000">(4) consume topic</text>
<text text-anchor="middle" x="179.2108" y="-340.1557" font-family="Times,serif" font-size="14.00" fill="#000000">get_order.reply</text>
</g>
<!-- Orders -->
<g id="node3" class="node">
<title>Orders</title>
<ellipse fill="none" stroke="#000000" cx="128.6701" cy="-68.6778" rx="68.8562" ry="68.8562"/>
<text text-anchor="middle" x="128.6701" y="-64.4778" font-family="Times,serif" font-size="14.00" fill="#000000">Orders Service</text>
</g>
<!-- Broker&#45;&gt;Orders -->
<g id="edge4" class="edge">
<title>Broker&#45;&gt;Orders</title>
<path fill="none" stroke="#000000" d="M83.5697,-258.2563C64.0619,-248.5173 43.1896,-234.1037 32.0845,-213.9557 24.8761,-200.8774 26.8724,-194.3499 32.0845,-180.3557 40.1146,-158.7952 54.3864,-138.6254 69.5361,-121.5214"/>
<polygon fill="#000000" stroke="#000000" points="72.3602,-123.6203 76.5393,-113.8845 67.201,-118.8892 72.3602,-123.6203"/>
<text text-anchor="middle" x="67.4629" y="-201.3557" font-family="Times,serif" font-size="14.00" fill="#000000">(2) consume</text>
<text text-anchor="middle" x="67.4629" y="-184.5557" font-family="Times,serif" font-size="14.00" fill="#000000">get_order</text>
</g>
<!-- Orders&#45;&gt;Broker -->
<g id="edge3" class="edge">
<title>Orders&#45;&gt;Broker</title>
<path fill="none" stroke="#000000" d="M128.6701,-137.5872C128.6701,-174.6644 128.6701,-218.3981 128.6701,-246.3881"/>
<polygon fill="#000000" stroke="#000000" points="125.1702,-246.6499 128.6701,-256.6499 132.1702,-246.6499 125.1702,-246.6499"/>
<text text-anchor="middle" x="171.6235" y="-201.3557" font-family="Times,serif" font-size="14.00" fill="#000000">(3) publish to</text>
<text text-anchor="middle" x="171.6235" y="-184.5557" font-family="Times,serif" font-size="14.00" fill="#000000">get_order.reply</text>
</g>
</g>
</svg>
